<svg xmlns="http://www.w3.org/2000/svg" xmlns:xlink="http://www.w3.org/1999/xlink" width="2000" zoomAndPan="magnify" viewBox="0 0 1500 1499.999933" height="2000" preserveAspectRatio="xMidYMid meet" version="1.0"><defs><g/></defs><g fill="#282828" fill-opacity="1"><g transform="translate(193.568834, 777.288129)"><g><path d="M 314.40625 -49.578125 C 315.789062 -48.890625 316.273438 -47.789062 315.859375 -46.28125 C 315.453125 -44.78125 314.6875 -43.195312 313.5625 -41.53125 C 312.4375 -39.875 311.398438 -38.476562 310.453125 -37.34375 C 310.015625 -36.84375 309.734375 -36.4375 309.609375 -36.125 C 301.453125 -24.832031 294.378906 -12.976562 288.390625 -0.5625 C 282.398438 11.851562 276.773438 24.488281 271.515625 37.34375 C 269.316406 42.300781 267.179688 47.257812 265.109375 52.21875 C 260.285156 63.125 255.613281 74.097656 251.09375 85.140625 C 243.3125 104.015625 235.097656 122.769531 226.453125 141.40625 C 223.378906 147.925781 219.925781 154.289062 216.09375 160.5 C 213.019531 165.582031 208.316406 168.054688 201.984375 167.921875 C 196.773438 168.054688 193.609375 165.644531 192.484375 160.6875 C 191.359375 156.414062 190.734375 152.054688 190.609375 147.609375 C 189.910156 130.796875 190.316406 114.050781 191.828125 97.375 C 192.828125 85.769531 193.734375 74.226562 194.546875 62.75 C 195.367188 50.332031 196.34375 37.914062 197.46875 25.5 C 199.914062 -2.789062 202.613281 -31.078125 205.5625 -59.359375 C 209.007812 -91.785156 212.582031 -124.117188 216.28125 -156.359375 C 222.738281 -211.046875 228.476562 -265.894531 233.5 -320.90625 C 233.75 -324.351562 233.8125 -327.1875 233.6875 -329.40625 C 233.5625 -331.632812 233.078125 -332.46875 232.234375 -331.90625 C 231.390625 -331.34375 230.085938 -328.707031 228.328125 -324 C 212.015625 -277.09375 196.960938 -229.835938 183.171875 -182.234375 C 182.609375 -180.472656 182.140625 -178.75 181.765625 -177.0625 C 173.484375 -148.769531 165.109375 -120.578125 156.640625 -92.484375 C 153.503906 -81.566406 149.863281 -70.507812 145.71875 -59.3125 C 141.582031 -48.113281 136.816406 -37.5625 131.421875 -27.65625 C 129.796875 -24.769531 127.664062 -22.8125 125.03125 -21.78125 C 122.394531 -20.75 119.414062 -20.421875 116.09375 -20.796875 C 112.644531 -21.109375 110.101562 -22.769531 108.46875 -25.78125 C 107.09375 -28.664062 106.25 -31.769531 105.9375 -35.09375 C 105.5625 -38.976562 105.148438 -42.925781 104.703125 -46.9375 C 103.640625 -55.71875 102.765625 -64.46875 102.078125 -73.1875 C 100.128906 -97.59375 97.570312 -122.085938 94.40625 -146.671875 C 91.238281 -171.253906 87.144531 -195.523438 82.125 -219.484375 C 80.75 -225.566406 78.726562 -225.410156 76.0625 -219.015625 C 73.394531 -212.617188 70.367188 -201.894531 66.984375 -186.84375 C 63.597656 -171.789062 60.003906 -154.460938 56.203125 -134.859375 C 52.410156 -115.265625 48.757812 -95.320312 45.25 -75.03125 C 41.738281 -54.738281 38.507812 -36.1875 35.5625 -19.375 C 31.164062 6.707031 28.21875 23.328125 26.71875 30.484375 C 25.46875 35.628906 23.742188 40.519531 21.546875 45.15625 C 20.535156 47.226562 19.132812 48.609375 17.34375 49.296875 C 15.5625 49.984375 13.578125 50.203125 11.390625 49.953125 C 6.992188 49.390625 4.296875 46.847656 3.296875 42.328125 C 2.921875 39.953125 2.734375 37.539062 2.734375 35.09375 C 2.546875 33.144531 2.453125 31.203125 2.453125 29.265625 C 2.066406 21.671875 1.8125 14.015625 1.6875 6.296875 C 0.5625 -52.898438 0.910156 -112.164062 2.734375 -171.5 C 3.921875 -209.007812 5.015625 -246.609375 6.015625 -284.296875 C 6.015625 -288.316406 6.015625 -292.394531 6.015625 -296.53125 C 5.890625 -300.351562 5.890625 -304.273438 6.015625 -308.296875 C 6.140625 -311.367188 7.269531 -313.484375 9.40625 -314.640625 C 11.539062 -315.804688 14.050781 -315.757812 16.9375 -314.5 C 18.0625 -314.125 18.828125 -313.507812 19.234375 -312.65625 C 19.640625 -311.8125 19.90625 -310.859375 20.03125 -309.796875 C 21.289062 -299.453125 21.734375 -289.101562 21.359375 -278.75 C 21.171875 -272.539062 20.953125 -266.332031 20.703125 -260.125 C 20.253906 -243.125 19.6875 -226.128906 19 -209.140625 C 18.1875 -187.242188 17.65625 -165.382812 17.40625 -143.5625 C 17.09375 -127.445312 16.75 -111.296875 16.375 -95.109375 C 15.9375 -77.984375 15.78125 -60.894531 15.90625 -43.84375 C 15.90625 -32.113281 15.84375 -20.226562 15.71875 -8.1875 C 15.71875 -7.5 15.796875 -6.429688 15.953125 -4.984375 C 16.109375 -3.546875 16.359375 -2.023438 16.703125 -0.421875 C 17.046875 1.171875 17.390625 2.4375 17.734375 3.375 C 18.078125 4.320312 18.484375 4.5625 18.953125 4.09375 C 19.421875 3.625 19.878906 2.070312 20.328125 -0.5625 C 21.515625 -8.15625 22.890625 -16.71875 24.453125 -26.25 C 27.910156 -48.695312 32.003906 -73.453125 36.734375 -100.515625 C 41.472656 -127.578125 46.820312 -153.132812 52.78125 -177.1875 C 58.738281 -201.25 65.164062 -219.925781 72.0625 -233.21875 C 74.945312 -238.050781 78.519531 -240.390625 82.78125 -240.234375 C 87.050781 -240.078125 90.503906 -237.457031 93.140625 -232.375 C 96.585938 -224.21875 99.488281 -214.242188 101.84375 -202.453125 C 104.195312 -190.660156 106.15625 -178.382812 107.71875 -165.625 C 109.289062 -152.863281 110.640625 -140.898438 111.765625 -129.734375 C 112.328125 -123.648438 112.890625 -118.128906 113.453125 -113.171875 C 114.273438 -105.273438 115.03125 -98.03125 115.71875 -91.4375 C 117.34375 -75.820312 118.84375 -63.671875 120.21875 -54.984375 C 121.601562 -46.296875 123.472656 -41.953125 125.828125 -41.953125 C 128.179688 -41.953125 131.394531 -47.363281 135.46875 -58.1875 C 139.550781 -69.007812 145.101562 -86.210938 152.125 -109.796875 C 158.457031 -131.617188 164.445312 -152.660156 170.09375 -172.921875 C 177.550781 -199.703125 185.28125 -226.304688 193.28125 -252.734375 C 201.28125 -279.171875 210.671875 -306.722656 221.453125 -335.390625 C 224.648438 -343.671875 227.972656 -350.503906 231.421875 -355.890625 C 234.878906 -361.285156 238.238281 -364.109375 241.5 -364.359375 C 242.75 -364.546875 244 -364.390625 245.25 -363.890625 C 246.507812 -363.390625 247.625 -361.960938 248.59375 -359.609375 C 249.570312 -357.253906 250.125 -353.320312 250.25 -347.8125 C 250.5 -338.59375 250.3125 -329.351562 249.6875 -320.09375 C 249.0625 -310.84375 248.335938 -301.609375 247.515625 -292.390625 C 247.390625 -291.265625 247.328125 -290.234375 247.328125 -289.296875 C 242.753906 -241.941406 237.644531 -194.679688 232 -147.515625 C 228.425781 -116.722656 224.972656 -85.957031 221.640625 -55.21875 C 221.640625 -54.53125 221.578125 -53.75 221.453125 -52.875 C 218.441406 -24.207031 215.625 4.484375 213 33.203125 C 210.800781 58.421875 208.789062 83.664062 206.96875 108.9375 C 206.84375 111.132812 206.71875 113.425781 206.59375 115.8125 C 206.15625 122.269531 205.875 128.726562 205.75 135.1875 C 205.75 137.570312 205.75 139.863281 205.75 142.0625 C 205.625 142.75 205.6875 143.328125 205.9375 143.796875 C 206.1875 144.265625 206.75 144.5 207.625 144.5 C 207.875 144.5 208.171875 144.40625 208.515625 144.21875 C 208.867188 144.03125 209.109375 143.71875 209.234375 143.28125 C 217.503906 126.15625 225.59375 109.066406 233.5 92.015625 C 240.90625 75.578125 248.507812 59.171875 256.3125 42.796875 C 264.125 26.429688 272.390625 10.191406 281.109375 -5.921875 C 288.253906 -19.472656 294.867188 -30.304688 300.953125 -38.421875 C 307.035156 -46.546875 311.519531 -50.265625 314.40625 -49.578125 Z M 314.40625 -49.578125 "/></g></g><g transform="translate(500.550498, 777.288129)"><g><path d="M 90.6875 -45.4375 C 92.070312 -46.25 93.421875 -46.875 94.734375 -47.3125 C 96.054688 -47.757812 96.921875 -47.726562 97.328125 -47.21875 C 97.734375 -46.71875 97.179688 -45.59375 95.671875 -43.84375 C 90.972656 -38.445312 85.34375 -33.503906 78.78125 -29.015625 C 72.226562 -24.535156 65.503906 -20.757812 58.609375 -17.6875 C 53.210938 -15.238281 47.519531 -13.289062 41.53125 -11.84375 C 35.539062 -10.40625 29.613281 -10.09375 23.75 -10.90625 C 17.882812 -11.726562 12.539062 -14.332031 7.71875 -18.71875 C 0.375 -25.488281 -2.664062 -33.769531 -1.40625 -43.5625 C -0.34375 -51.332031 2.675781 -57.929688 7.65625 -63.359375 C 12.644531 -68.785156 18.9375 -72.472656 26.53125 -74.421875 C 32.863281 -75.796875 39.195312 -75.953125 45.53125 -74.890625 C 48.414062 -74.453125 51.050781 -73.476562 53.4375 -71.96875 C 55.632812 -70.269531 56.84375 -68.289062 57.0625 -66.03125 C 57.28125 -63.78125 56.414062 -61.617188 54.46875 -59.546875 C 50.457031 -55.972656 45.816406 -53.84375 40.546875 -53.15625 C 34.648438 -52.15625 28.722656 -51.523438 22.765625 -51.265625 C 19.878906 -51.265625 17.851562 -50.671875 16.6875 -49.484375 C 15.53125 -48.296875 14.859375 -46.257812 14.671875 -43.375 C 13.734375 -35.53125 16.242188 -29.128906 22.203125 -24.171875 C 25.898438 -21.222656 30.398438 -19.96875 35.703125 -20.40625 C 41.003906 -20.851562 46.632812 -22.28125 52.59375 -24.6875 C 58.550781 -27.101562 64.382812 -29.925781 70.09375 -33.15625 C 75.800781 -36.382812 80.941406 -39.441406 85.515625 -42.328125 C 87.460938 -43.585938 89.1875 -44.625 90.6875 -45.4375 Z M 25.3125 -62.1875 C 25.3125 -62.0625 25.21875 -62 25.03125 -62 C 24.78125 -61.75 24.445312 -61.453125 24.03125 -61.109375 C 23.625 -60.765625 23.25 -60.414062 22.90625 -60.0625 C 22.5625 -59.71875 22.390625 -59.484375 22.390625 -59.359375 C 22.515625 -58.921875 23.640625 -58.8125 25.765625 -59.03125 C 27.898438 -59.25 30.253906 -59.625 32.828125 -60.15625 C 35.398438 -60.695312 37.546875 -61.421875 39.265625 -62.328125 C 40.992188 -63.234375 41.515625 -64.316406 40.828125 -65.578125 C 40.515625 -65.953125 40.125 -66.28125 39.65625 -66.5625 C 39.1875 -66.84375 38.671875 -67.046875 38.109375 -67.171875 C 35.597656 -67.171875 33.304688 -66.679688 31.234375 -65.703125 C 29.160156 -64.734375 27.1875 -63.5625 25.3125 -62.1875 Z M 25.3125 -62.1875 "/></g></g><g transform="translate(591.619529, 777.288129)"><g><path d="M 147.609375 -45.90625 C 148.171875 -46.976562 149.03125 -47.546875 150.1875 -47.609375 C 151.351562 -47.671875 152.34375 -46.945312 153.15625 -45.4375 C 153.46875 -45.0625 153.171875 -44.007812 152.265625 -42.28125 C 151.359375 -40.5625 150.148438 -38.617188 148.640625 -36.453125 C 147.140625 -34.285156 145.695312 -32.304688 144.3125 -30.515625 C 142.9375 -28.734375 141.96875 -27.5625 141.40625 -27 C 135.1875 -20.101562 128.941406 -15.039062 122.671875 -11.8125 C 116.398438 -8.582031 109.59375 -7.890625 102.25 -9.734375 C 94.914062 -11.585938 86.703125 -16.8125 77.609375 -25.40625 C 76.234375 -26.90625 74.851562 -28.410156 73.46875 -29.921875 C 73.09375 -30.359375 72.75 -30.765625 72.4375 -31.140625 C 70.9375 -32.835938 69.273438 -33.054688 67.453125 -31.796875 C 65.566406 -30.421875 63.65625 -29.039062 61.71875 -27.65625 C 60.019531 -26.40625 58.296875 -25.242188 56.546875 -24.171875 C 50.710938 -20.160156 44.566406 -16.773438 38.109375 -14.015625 C 31.203125 -10.941406 23.957031 -9.75 16.375 -10.4375 C 4.519531 -11.820312 -1.625 -18.378906 -2.0625 -30.109375 C -2.195312 -38.378906 -0.429688 -45.789062 3.234375 -52.34375 C 6.910156 -58.90625 12.023438 -63.738281 18.578125 -66.84375 C 25.128906 -69.945312 32.671875 -70.554688 41.203125 -68.671875 C 42.148438 -68.484375 43.40625 -68.203125 44.96875 -67.828125 C 45.90625 -67.515625 47.066406 -67.234375 48.453125 -66.984375 C 47.640625 -68.929688 46.882812 -70.65625 46.1875 -72.15625 C 44.9375 -74.664062 43.84375 -76.957031 42.90625 -79.03125 C 37.195312 -90.757812 32.550781 -104.164062 28.96875 -119.25 C 25.394531 -134.332031 23.640625 -149.804688 23.703125 -165.671875 C 23.765625 -181.535156 26.414062 -196.300781 31.65625 -209.96875 C 36.894531 -223.644531 45.597656 -234.90625 57.765625 -243.75 C 65.472656 -248.957031 73.4375 -251.78125 81.65625 -252.21875 C 89.875 -252.65625 97.632812 -250.867188 104.9375 -246.859375 C 112.25 -242.847656 118.191406 -236.828125 122.765625 -228.796875 C 128.660156 -217.753906 132.300781 -206.117188 133.6875 -193.890625 C 136.195312 -174.140625 135.785156 -155.703125 132.453125 -138.578125 C 129.128906 -121.453125 123.265625 -105.269531 114.859375 -90.03125 C 106.460938 -74.789062 95.769531 -59.988281 82.78125 -45.625 C 81.53125 -44.25 80.875 -43.148438 80.8125 -42.328125 C 80.75 -41.515625 81.34375 -40.359375 82.59375 -38.859375 C 85.226562 -35.410156 88.097656 -32.050781 91.203125 -28.78125 C 94.304688 -25.519531 97.773438 -22.796875 101.609375 -20.609375 C 106.992188 -18.285156 112.757812 -18.25 118.90625 -20.5 C 125.0625 -22.757812 130.753906 -26.273438 135.984375 -31.046875 C 141.222656 -35.816406 145.097656 -40.769531 147.609375 -45.90625 Z M 55.3125 -37.625 C 56.945312 -39.007812 57.070312 -40.578125 55.6875 -42.328125 C 54.875 -43.335938 54.0625 -44.375 53.25 -45.4375 C 50.988281 -48.195312 48.414062 -51.035156 45.53125 -53.953125 C 42.644531 -56.867188 39.648438 -59.078125 36.546875 -60.578125 C 33.441406 -62.085938 30.289062 -62.21875 27.09375 -60.96875 C 22.707031 -58.894531 19.101562 -55.238281 16.28125 -50 C 13.457031 -44.757812 11.789062 -39.378906 11.28125 -33.859375 C 10.78125 -28.347656 11.847656 -24.148438 14.484375 -21.265625 C 17.117188 -18.378906 21.601562 -18.097656 27.9375 -20.421875 C 37.914062 -24.804688 47.039062 -30.539062 55.3125 -37.625 Z M 76.203125 -58.046875 C 89.429688 -73.660156 99.320312 -89.023438 105.875 -104.140625 C 112.4375 -119.253906 116.878906 -136.941406 119.203125 -157.203125 C 119.890625 -162.160156 120.203125 -168.648438 120.140625 -176.671875 C 120.078125 -184.703125 119.351562 -193.09375 117.96875 -201.84375 C 116.59375 -210.59375 114.113281 -218.554688 110.53125 -225.734375 C 106.957031 -232.921875 101.957031 -238.097656 95.53125 -241.265625 C 89.101562 -244.429688 80.875 -244.414062 70.84375 -241.21875 C 59.800781 -234.757812 51.613281 -226.179688 46.28125 -215.484375 C 40.957031 -204.796875 37.914062 -192.894531 37.15625 -179.78125 C 36.40625 -166.675781 37.269531 -153.285156 39.75 -139.609375 C 42.226562 -125.941406 45.675781 -112.972656 50.09375 -100.703125 C 54.519531 -88.441406 59.269531 -77.765625 64.34375 -68.671875 C 64.914062 -67.546875 65.484375 -66.421875 66.046875 -65.296875 C 67.546875 -61.585938 69.738281 -58.226562 72.625 -55.21875 C 73.0625 -55.59375 73.503906 -55.941406 73.953125 -56.265625 C 74.765625 -56.765625 75.515625 -57.359375 76.203125 -58.046875 Z M 76.203125 -58.046875 "/></g></g><g transform="translate(738.383671, 777.288129)"><g><path d="M 48.828125 -38.1875 C 46.878906 -34.175781 43.566406 -29.722656 38.890625 -24.828125 C 34.222656 -19.941406 28.925781 -16.835938 23 -15.515625 C 17.070312 -14.203125 11.410156 -16.242188 6.015625 -21.640625 C 3.953125 -24.023438 2.429688 -26.769531 1.453125 -29.875 C 0.484375 -32.976562 0.125 -36.035156 0.375 -39.046875 C 0.375 -39.859375 0.375 -40.890625 0.375 -42.140625 C 0.375 -45.335938 0.515625 -49.035156 0.796875 -53.234375 C 1.078125 -57.441406 1.703125 -61.238281 2.671875 -64.625 C 3.648438 -68.019531 5.175781 -70.0625 7.25 -70.75 C 13.207031 -72.25 16.4375 -70.175781 16.9375 -64.53125 C 16.9375 -62.71875 16.875 -60.898438 16.75 -59.078125 C 16.625 -58.140625 16.5625 -57.265625 16.5625 -56.453125 C 16.4375 -53.816406 16.3125 -51.179688 16.1875 -48.546875 C 16.1875 -46.472656 16.09375 -44.398438 15.90625 -42.328125 C 15.78125 -33.234375 17.816406 -27.820312 22.015625 -26.09375 C 26.210938 -24.375 31.007812 -26.210938 36.40625 -31.609375 C 41.800781 -37.003906 45.328125 -41.488281 46.984375 -45.0625 C 48.648438 -48.632812 49.859375 -49.382812 50.609375 -47.3125 C 51.367188 -45.25 50.773438 -42.207031 48.828125 -38.1875 Z M 15.71875 -90.125 C 14.894531 -89.4375 13.898438 -89 12.734375 -88.8125 C 11.578125 -88.625 10.5625 -88.71875 9.6875 -89.09375 C 9 -89.65625 8.5625 -90.390625 8.375 -91.296875 C 8.1875 -92.210938 8.09375 -93.296875 8.09375 -94.546875 C 8.09375 -94.796875 8.15625 -95.046875 8.28125 -95.296875 C 8.40625 -96.429688 8.6875 -97.5625 9.125 -98.6875 C 10.375 -101.695312 12.976562 -103.078125 16.9375 -102.828125 C 18.3125 -102.640625 19.390625 -102.070312 20.171875 -101.125 C 20.960938 -100.1875 21.140625 -99.09375 20.703125 -97.84375 C 19.753906 -94.769531 18.09375 -92.195312 15.71875 -90.125 Z M 15.71875 -90.125 "/></g></g><g transform="translate(784.576743, 777.288129)"><g><path d="M 69.046875 -45.25 C 72.503906 -48.570312 73.992188 -49.398438 73.515625 -47.734375 C 73.046875 -46.078125 71.148438 -43.066406 67.828125 -38.703125 C 64.503906 -34.347656 60.363281 -29.628906 55.40625 -24.546875 C 50.457031 -19.472656 45.222656 -15.066406 39.703125 -11.328125 C 34.179688 -7.597656 28.941406 -5.578125 23.984375 -5.265625 C 17.898438 -5.265625 13.023438 -7.066406 9.359375 -10.671875 C 5.691406 -14.285156 3.070312 -19.054688 1.5 -24.984375 C -0.0625 -30.910156 -0.71875 -37.320312 -0.46875 -44.21875 C -0.15625 -51.925781 0.125 -59.640625 0.375 -67.359375 C 0.5 -71.242188 0.625 -75.039062 0.75 -78.75 C 1.0625 -84.957031 1.28125 -91.164062 1.40625 -97.375 C 1.53125 -99.3125 1.21875 -100.9375 0.46875 -102.25 C -0.28125 -103.570312 -1.628906 -104.296875 -3.578125 -104.421875 C -5.773438 -104.546875 -8.535156 -104.609375 -11.859375 -104.609375 C -14.742188 -104.609375 -17.21875 -104.609375 -19.28125 -104.609375 C -22.164062 -104.921875 -24.09375 -105.6875 -25.0625 -106.90625 C -26.039062 -108.132812 -25.273438 -109.378906 -22.765625 -110.640625 C -21.003906 -111.328125 -18.882812 -111.703125 -16.40625 -111.765625 C -13.9375 -111.828125 -11.507812 -111.796875 -9.125 -111.671875 C -7.625 -111.546875 -6.304688 -111.484375 -5.171875 -111.484375 C -1.472656 -111.484375 0.78125 -112.0625 1.59375 -113.21875 C 2.414062 -114.382812 2.921875 -116.691406 3.109375 -120.140625 C 3.359375 -123.773438 3.546875 -127.441406 3.671875 -131.140625 C 3.796875 -133.085938 3.953125 -135.035156 4.140625 -136.984375 C 4.140625 -139.867188 4.890625 -142.46875 6.390625 -144.78125 C 8.023438 -146.976562 10.097656 -147.828125 12.609375 -147.328125 C 14.804688 -146.765625 16.03125 -145.382812 16.28125 -143.1875 C 16.46875 -139.550781 16.5625 -135.878906 16.5625 -132.171875 C 16.6875 -130.109375 16.6875 -128.039062 16.5625 -125.96875 C 16.5625 -123.769531 16.625 -121.484375 16.75 -119.109375 C 16.625 -115.835938 17 -113.78125 17.875 -112.9375 C 18.75 -112.09375 20.910156 -111.671875 24.359375 -111.671875 C 30.003906 -111.671875 35.585938 -111.671875 41.109375 -111.671875 C 43.617188 -111.671875 51.082031 -111.84375 63.5 -112.1875 C 75.914062 -112.53125 82.609375 -111.523438 83.578125 -109.171875 C 84.554688 -106.828125 76.703125 -105.460938 60.015625 -105.078125 C 49.921875 -104.515625 42.113281 -104.234375 36.59375 -104.234375 C 32.894531 -104.359375 29.570312 -104.421875 26.625 -104.421875 C 21.664062 -104.421875 18.609375 -103.554688 17.453125 -101.828125 C 16.296875 -100.109375 15.78125 -96.644531 15.90625 -91.4375 C 15.78125 -86.988281 15.554688 -81.597656 15.234375 -75.265625 C 14.421875 -62.273438 14.015625 -49.039062 14.015625 -35.5625 C 14.328125 -26.28125 15.988281 -20.257812 19 -17.5 C 22.007812 -14.738281 25.925781 -14.21875 30.75 -15.9375 C 35.582031 -17.664062 40.804688 -20.738281 46.421875 -25.15625 C 52.035156 -29.582031 57.601562 -34.335938 63.125 -39.421875 C 64.3125 -40.984375 65.753906 -42.457031 67.453125 -43.84375 C 68.015625 -44.34375 68.546875 -44.8125 69.046875 -45.25 Z M 69.046875 -45.25 "/></g></g><g transform="translate(852.408119, 777.288129)"><g><path d="M 90.6875 -45.4375 C 92.070312 -46.25 93.421875 -46.875 94.734375 -47.3125 C 96.054688 -47.757812 96.921875 -47.726562 97.328125 -47.21875 C 97.734375 -46.71875 97.179688 -45.59375 95.671875 -43.84375 C 90.972656 -38.445312 85.34375 -33.503906 78.78125 -29.015625 C 72.226562 -24.535156 65.503906 -20.757812 58.609375 -17.6875 C 53.210938 -15.238281 47.519531 -13.289062 41.53125 -11.84375 C 35.539062 -10.40625 29.613281 -10.09375 23.75 -10.90625 C 17.882812 -11.726562 12.539062 -14.332031 7.71875 -18.71875 C 0.375 -25.488281 -2.664062 -33.769531 -1.40625 -43.5625 C -0.34375 -51.332031 2.675781 -57.929688 7.65625 -63.359375 C 12.644531 -68.785156 18.9375 -72.472656 26.53125 -74.421875 C 32.863281 -75.796875 39.195312 -75.953125 45.53125 -74.890625 C 48.414062 -74.453125 51.050781 -73.476562 53.4375 -71.96875 C 55.632812 -70.269531 56.84375 -68.289062 57.0625 -66.03125 C 57.28125 -63.78125 56.414062 -61.617188 54.46875 -59.546875 C 50.457031 -55.972656 45.816406 -53.84375 40.546875 -53.15625 C 34.648438 -52.15625 28.722656 -51.523438 22.765625 -51.265625 C 19.878906 -51.265625 17.851562 -50.671875 16.6875 -49.484375 C 15.53125 -48.296875 14.859375 -46.257812 14.671875 -43.375 C 13.734375 -35.53125 16.242188 -29.128906 22.203125 -24.171875 C 25.898438 -21.222656 30.398438 -19.96875 35.703125 -20.40625 C 41.003906 -20.851562 46.632812 -22.28125 52.59375 -24.6875 C 58.550781 -27.101562 64.382812 -29.925781 70.09375 -33.15625 C 75.800781 -36.382812 80.941406 -39.441406 85.515625 -42.328125 C 87.460938 -43.585938 89.1875 -44.625 90.6875 -45.4375 Z M 25.3125 -62.1875 C 25.3125 -62.0625 25.21875 -62 25.03125 -62 C 24.78125 -61.75 24.445312 -61.453125 24.03125 -61.109375 C 23.625 -60.765625 23.25 -60.414062 22.90625 -60.0625 C 22.5625 -59.71875 22.390625 -59.484375 22.390625 -59.359375 C 22.515625 -58.921875 23.640625 -58.8125 25.765625 -59.03125 C 27.898438 -59.25 30.253906 -59.625 32.828125 -60.15625 C 35.398438 -60.695312 37.546875 -61.421875 39.265625 -62.328125 C 40.992188 -63.234375 41.515625 -64.316406 40.828125 -65.578125 C 40.515625 -65.953125 40.125 -66.28125 39.65625 -66.5625 C 39.1875 -66.84375 38.671875 -67.046875 38.109375 -67.171875 C 35.597656 -67.171875 33.304688 -66.679688 31.234375 -65.703125 C 29.160156 -64.734375 27.1875 -63.5625 25.3125 -62.1875 Z M 25.3125 -62.1875 "/></g></g><g transform="translate(943.47715, 777.288129)"><g><path d="M 60.015625 -45.0625 C 61.210938 -47.507812 62.03125 -48.640625 62.46875 -48.453125 C 62.90625 -48.265625 63.015625 -47.273438 62.796875 -45.484375 C 62.578125 -43.703125 62.1875 -41.679688 61.625 -39.421875 C 60.800781 -35.972656 59.382812 -31.972656 57.375 -27.421875 C 55.375 -22.878906 53.148438 -18.753906 50.703125 -15.046875 C 47.066406 -9.910156 42.566406 -6.039062 37.203125 -3.4375 C 31.847656 -0.832031 26.988281 -0.1875 22.625 -1.5 C 18.269531 -2.820312 15.742188 -6.929688 15.046875 -13.828125 C 14.921875 -19.597656 15.425781 -25.929688 16.5625 -32.828125 C 16.9375 -35.710938 17.34375 -38.535156 17.78125 -41.296875 C 17.78125 -42.304688 17.53125 -43.078125 17.03125 -43.609375 C 16.53125 -44.140625 15.867188 -44.34375 15.046875 -44.21875 C 14.484375 -44.21875 13.859375 -44.21875 13.171875 -44.21875 C 9.722656 -43.65625 6.210938 -43.71875 2.640625 -44.40625 C -1.628906 -45.65625 -4.109375 -47.769531 -4.796875 -50.75 C -5.484375 -53.726562 -5.421875 -57.632812 -4.609375 -62.46875 C -4.171875 -65.914062 -2.882812 -68.5 -0.75 -70.21875 C 1.382812 -71.945312 3.894531 -72.65625 6.78125 -72.34375 C 10.789062 -71.96875 12.734375 -70.429688 12.609375 -67.734375 C 12.484375 -65.035156 11.726562 -62.148438 10.34375 -59.078125 C 9.09375 -56.503906 8.4375 -54.351562 8.375 -52.625 C 8.3125 -50.90625 9.785156 -50.296875 12.796875 -50.796875 C 13.484375 -50.984375 14.234375 -51.203125 15.046875 -51.453125 C 16.179688 -51.898438 17.46875 -52.296875 18.90625 -52.640625 C 20.351562 -52.984375 22.234375 -53.0625 24.546875 -52.875 C 27.304688 -52.75 29.140625 -51.476562 30.046875 -49.0625 C 30.960938 -46.644531 31.359375 -43.617188 31.234375 -39.984375 C 31.109375 -36.347656 30.765625 -32.644531 30.203125 -28.875 C 29.515625 -24.175781 29.171875 -20.148438 29.171875 -16.796875 C 29.171875 -13.441406 30.140625 -11.476562 32.078125 -10.90625 C 34.648438 -10.21875 38.488281 -12.554688 43.59375 -17.921875 C 48.707031 -23.285156 54.179688 -32.332031 60.015625 -45.0625 Z M 60.015625 -45.0625 "/></g></g><g transform="translate(1001.053853, 777.288129)"><g><path d="M 60.015625 -45.0625 C 61.210938 -47.507812 62.03125 -48.640625 62.46875 -48.453125 C 62.90625 -48.265625 63.015625 -47.273438 62.796875 -45.484375 C 62.578125 -43.703125 62.1875 -41.679688 61.625 -39.421875 C 60.800781 -35.972656 59.382812 -31.972656 57.375 -27.421875 C 55.375 -22.878906 53.148438 -18.753906 50.703125 -15.046875 C 47.066406 -9.910156 42.566406 -6.039062 37.203125 -3.4375 C 31.847656 -0.832031 26.988281 -0.1875 22.625 -1.5 C 18.269531 -2.820312 15.742188 -6.929688 15.046875 -13.828125 C 14.921875 -19.597656 15.425781 -25.929688 16.5625 -32.828125 C 16.9375 -35.710938 17.34375 -38.535156 17.78125 -41.296875 C 17.78125 -42.304688 17.53125 -43.078125 17.03125 -43.609375 C 16.53125 -44.140625 15.867188 -44.34375 15.046875 -44.21875 C 14.484375 -44.21875 13.859375 -44.21875 13.171875 -44.21875 C 9.722656 -43.65625 6.210938 -43.71875 2.640625 -44.40625 C -1.628906 -45.65625 -4.109375 -47.769531 -4.796875 -50.75 C -5.484375 -53.726562 -5.421875 -57.632812 -4.609375 -62.46875 C -4.171875 -65.914062 -2.882812 -68.5 -0.75 -70.21875 C 1.382812 -71.945312 3.894531 -72.65625 6.78125 -72.34375 C 10.789062 -71.96875 12.734375 -70.429688 12.609375 -67.734375 C 12.484375 -65.035156 11.726562 -62.148438 10.34375 -59.078125 C 9.09375 -56.503906 8.4375 -54.351562 8.375 -52.625 C 8.3125 -50.90625 9.785156 -50.296875 12.796875 -50.796875 C 13.484375 -50.984375 14.234375 -51.203125 15.046875 -51.453125 C 16.179688 -51.898438 17.46875 -52.296875 18.90625 -52.640625 C 20.351562 -52.984375 22.234375 -53.0625 24.546875 -52.875 C 27.304688 -52.75 29.140625 -51.476562 30.046875 -49.0625 C 30.960938 -46.644531 31.359375 -43.617188 31.234375 -39.984375 C 31.109375 -36.347656 30.765625 -32.644531 30.203125 -28.875 C 29.515625 -24.175781 29.171875 -20.148438 29.171875 -16.796875 C 29.171875 -13.441406 30.140625 -11.476562 32.078125 -10.90625 C 34.648438 -10.21875 38.488281 -12.554688 43.59375 -17.921875 C 48.707031 -23.285156 54.179688 -32.332031 60.015625 -45.0625 Z M 60.015625 -45.0625 "/></g></g></g><g fill="#282828" fill-opacity="1"><g transform="translate(1058.630587, 777.288129)"><g><path d="M 106.4375 -48.359375 C 104.71875 -43.085938 101.300781 -37.046875 96.1875 -30.234375 C 91.082031 -23.429688 84.703125 -19.054688 77.046875 -17.109375 C 69.398438 -15.171875 62.785156 -15.441406 57.203125 -17.921875 C 51.617188 -20.398438 48.546875 -27.03125 47.984375 -37.8125 C 41.648438 -25.519531 35.613281 -17.648438 29.875 -14.203125 C 24.132812 -10.753906 18.160156 -9.4375 11.953125 -10.25 C 4.921875 -11.382812 0.171875 -14.113281 -2.296875 -18.4375 C -4.773438 -22.769531 -5.609375 -27.769531 -4.796875 -33.4375 C -3.984375 -39.113281 -2.257812 -44.554688 0.375 -49.765625 C 2.445312 -53.648438 5.316406 -57.253906 8.984375 -60.578125 C 12.648438 -63.910156 16.492188 -66.515625 20.515625 -68.390625 C 25.460938 -70.898438 30.445312 -72.09375 35.46875 -71.96875 C 40.488281 -71.84375 45.851562 -70.179688 51.5625 -66.984375 C 51.6875 -66.859375 51.75 -66.984375 51.75 -67.359375 C 51.75 -67.921875 51.890625 -68.625 52.171875 -69.46875 C 52.453125 -70.320312 52.9375 -71 53.625 -71.5 C 55.507812 -72.875 57.734375 -73.5625 60.296875 -73.5625 C 62.867188 -73.5625 64.847656 -72.28125 66.234375 -69.71875 C 66.484375 -66.382812 66.140625 -62.148438 65.203125 -57.015625 C 63.128906 -45.722656 63.125 -37.597656 65.1875 -32.640625 C 67.257812 -27.691406 70.914062 -25.390625 76.15625 -25.734375 C 81.394531 -26.078125 88.179688 -31.25 96.515625 -41.25 C 104.859375 -51.257812 108.164062 -53.628906 106.4375 -48.359375 Z M 13.828125 -21.828125 C 16.710938 -19.753906 20.019531 -20.035156 23.75 -22.671875 C 27.488281 -25.304688 31.082031 -29.035156 34.53125 -33.859375 C 37.976562 -38.691406 40.875 -43.519531 43.21875 -48.34375 C 45.570312 -53.175781 46.878906 -56.753906 47.140625 -59.078125 C 40.109375 -62.835938 34.082031 -63.476562 29.0625 -61 C 24.050781 -58.53125 20.054688 -54.488281 17.078125 -48.875 C 14.097656 -43.257812 12.320312 -37.800781 11.75 -32.5 C 11.1875 -27.195312 11.878906 -23.640625 13.828125 -21.828125 Z M 13.828125 -21.828125 "/></g></g><g transform="translate(1158.354941, 777.288129)"><g><path d="M 77.796875 -36.21875 C 82.628906 -43.875 85.5 -48.734375 86.40625 -50.796875 C 87.320312 -52.867188 88.046875 -52.773438 88.578125 -50.515625 C 89.109375 -48.265625 87.554688 -43.171875 83.921875 -35.234375 C 80.285156 -27.296875 75.769531 -21.175781 70.375 -16.875 C 64.976562 -12.582031 59.941406 -11 55.265625 -12.125 C 50.597656 -13.257812 47.257812 -16.507812 45.25 -21.875 C 43.238281 -27.238281 42.644531 -33.992188 43.46875 -42.140625 C 43.46875 -42.265625 43.53125 -42.613281 43.65625 -43.1875 C 43.78125 -44.5625 44.015625 -46.597656 44.359375 -49.296875 C 44.703125 -51.992188 44.953125 -54.785156 45.109375 -57.671875 C 45.265625 -60.554688 45.171875 -62.9375 44.828125 -64.8125 C 44.484375 -66.695312 43.617188 -67.359375 42.234375 -66.796875 C 38.910156 -64.972656 35.664062 -61.410156 32.5 -56.109375 C 29.332031 -50.816406 26.460938 -45.269531 23.890625 -39.46875 C 21.316406 -33.664062 19.5 -28.976562 18.4375 -25.40625 C 18 -24.269531 17.59375 -23.078125 17.21875 -21.828125 C 16.65625 -20.191406 16.023438 -18.5625 15.328125 -16.9375 C 13.515625 -12.226562 10.347656 -10.410156 5.828125 -11.484375 C 3.316406 -12.046875 1.84375 -13.582031 1.40625 -16.09375 C 1.28125 -18.03125 1.21875 -19.878906 1.21875 -21.640625 C 1.21875 -22.765625 1.15625 -23.800781 1.03125 -24.75 C 0.78125 -38.664062 0.4375 -52.679688 0 -66.796875 C 0.125 -68.421875 0.84375 -69.546875 2.15625 -70.171875 C 3.476562 -70.804688 5.050781 -71.125 6.875 -71.125 C 8.25 -71.125 9.546875 -70.742188 10.765625 -69.984375 C 11.992188 -69.234375 12.765625 -67.671875 13.078125 -65.296875 C 13.203125 -64.472656 13.265625 -63.65625 13.265625 -62.84375 C 13.390625 -62.40625 13.453125 -62 13.453125 -61.625 C 13.703125 -59.675781 13.828125 -58.015625 13.828125 -56.640625 C 13.828125 -54.566406 13.96875 -53.148438 14.25 -52.390625 C 14.53125 -51.640625 15.125 -51.671875 16.03125 -52.484375 C 16.945312 -53.304688 18.441406 -55.253906 20.515625 -58.328125 C 24.085938 -63.847656 28.507812 -68.519531 33.78125 -72.34375 C 38.601562 -75.789062 43.898438 -77.234375 49.671875 -76.671875 C 54.628906 -76.171875 57.953125 -73.566406 59.640625 -68.859375 C 60.335938 -66.484375 60.6875 -64.085938 60.6875 -61.671875 C 60.6875 -59.253906 60.523438 -56.820312 60.203125 -54.375 C 60.078125 -51.863281 59.890625 -49.289062 59.640625 -46.65625 C 59.453125 -45.84375 59.296875 -45.03125 59.171875 -44.21875 C 58.359375 -35.25 58.640625 -29.242188 60.015625 -26.203125 C 61.398438 -23.160156 63.503906 -22.15625 66.328125 -23.1875 C 69.148438 -24.226562 72.972656 -28.570312 77.796875 -36.21875 Z M 77.796875 -36.21875 "/></g></g><g transform="translate(1241.14497, 777.288129)"><g><path d="M 90.6875 -45.4375 C 92.070312 -46.25 93.421875 -46.875 94.734375 -47.3125 C 96.054688 -47.757812 96.921875 -47.726562 97.328125 -47.21875 C 97.734375 -46.71875 97.179688 -45.59375 95.671875 -43.84375 C 90.972656 -38.445312 85.34375 -33.503906 78.78125 -29.015625 C 72.226562 -24.535156 65.503906 -20.757812 58.609375 -17.6875 C 53.210938 -15.238281 47.519531 -13.289062 41.53125 -11.84375 C 35.539062 -10.40625 29.613281 -10.09375 23.75 -10.90625 C 17.882812 -11.726562 12.539062 -14.332031 7.71875 -18.71875 C 0.375 -25.488281 -2.664062 -33.769531 -1.40625 -43.5625 C -0.34375 -51.332031 2.675781 -57.929688 7.65625 -63.359375 C 12.644531 -68.785156 18.9375 -72.472656 26.53125 -74.421875 C 32.863281 -75.796875 39.195312 -75.953125 45.53125 -74.890625 C 48.414062 -74.453125 51.050781 -73.476562 53.4375 -71.96875 C 55.632812 -70.269531 56.84375 -68.289062 57.0625 -66.03125 C 57.28125 -63.78125 56.414062 -61.617188 54.46875 -59.546875 C 50.457031 -55.972656 45.816406 -53.84375 40.546875 -53.15625 C 34.648438 -52.15625 28.722656 -51.523438 22.765625 -51.265625 C 19.878906 -51.265625 17.851562 -50.671875 16.6875 -49.484375 C 15.53125 -48.296875 14.859375 -46.257812 14.671875 -43.375 C 13.734375 -35.53125 16.242188 -29.128906 22.203125 -24.171875 C 25.898438 -21.222656 30.398438 -19.96875 35.703125 -20.40625 C 41.003906 -20.851562 46.632812 -22.28125 52.59375 -24.6875 C 58.550781 -27.101562 64.382812 -29.925781 70.09375 -33.15625 C 75.800781 -36.382812 80.941406 -39.441406 85.515625 -42.328125 C 87.460938 -43.585938 89.1875 -44.625 90.6875 -45.4375 Z M 25.3125 -62.1875 C 25.3125 -62.0625 25.21875 -62 25.03125 -62 C 24.78125 -61.75 24.445312 -61.453125 24.03125 -61.109375 C 23.625 -60.765625 23.25 -60.414062 22.90625 -60.0625 C 22.5625 -59.71875 22.390625 -59.484375 22.390625 -59.359375 C 22.515625 -58.921875 23.640625 -58.8125 25.765625 -59.03125 C 27.898438 -59.25 30.253906 -59.625 32.828125 -60.15625 C 35.398438 -60.695312 37.546875 -61.421875 39.265625 -62.328125 C 40.992188 -63.234375 41.515625 -64.316406 40.828125 -65.578125 C 40.515625 -65.953125 40.125 -66.28125 39.65625 -66.5625 C 39.1875 -66.84375 38.671875 -67.046875 38.109375 -67.171875 C 35.597656 -67.171875 33.304688 -66.679688 31.234375 -65.703125 C 29.160156 -64.734375 27.1875 -63.5625 25.3125 -62.1875 Z M 25.3125 -62.1875 "/></g></g></g><g fill="#282828" fill-opacity="1"><g transform="translate(1332.213936, 777.288129)"><g><path d="M 106.4375 -48.359375 C 104.71875 -43.085938 101.300781 -37.046875 96.1875 -30.234375 C 91.082031 -23.429688 84.703125 -19.054688 77.046875 -17.109375 C 69.398438 -15.171875 62.785156 -15.441406 57.203125 -17.921875 C 51.617188 -20.398438 48.546875 -27.03125 47.984375 -37.8125 C 41.648438 -25.519531 35.613281 -17.648438 29.875 -14.203125 C 24.132812 -10.753906 18.160156 -9.4375 11.953125 -10.25 C 4.921875 -11.382812 0.171875 -14.113281 -2.296875 -18.4375 C -4.773438 -22.769531 -5.609375 -27.769531 -4.796875 -33.4375 C -3.984375 -39.113281 -2.257812 -44.554688 0.375 -49.765625 C 2.445312 -53.648438 5.316406 -57.253906 8.984375 -60.578125 C 12.648438 -63.910156 16.492188 -66.515625 20.515625 -68.390625 C 25.460938 -70.898438 30.445312 -72.09375 35.46875 -71.96875 C 40.488281 -71.84375 45.851562 -70.179688 51.5625 -66.984375 C 51.6875 -66.859375 51.75 -66.984375 51.75 -67.359375 C 51.75 -67.921875 51.890625 -68.625 52.171875 -69.46875 C 52.453125 -70.320312 52.9375 -71 53.625 -71.5 C 55.507812 -72.875 57.734375 -73.5625 60.296875 -73.5625 C 62.867188 -73.5625 64.847656 -72.28125 66.234375 -69.71875 C 66.484375 -66.382812 66.140625 -62.148438 65.203125 -57.015625 C 63.128906 -45.722656 63.125 -37.597656 65.1875 -32.640625 C 67.257812 -27.691406 70.914062 -25.390625 76.15625 -25.734375 C 81.394531 -26.078125 88.179688 -31.25 96.515625 -41.25 C 104.859375 -51.257812 108.164062 -53.628906 106.4375 -48.359375 Z M 13.828125 -21.828125 C 16.710938 -19.753906 20.019531 -20.035156 23.75 -22.671875 C 27.488281 -25.304688 31.082031 -29.035156 34.53125 -33.859375 C 37.976562 -38.691406 40.875 -43.519531 43.21875 -48.34375 C 45.570312 -53.175781 46.878906 -56.753906 47.140625 -59.078125 C 40.109375 -62.835938 34.082031 -63.476562 29.0625 -61 C 24.050781 -58.53125 20.054688 -54.488281 17.078125 -48.875 C 14.097656 -43.257812 12.320312 -37.800781 11.75 -32.5 C 11.1875 -27.195312 11.878906 -23.640625 13.828125 -21.828125 Z M 13.828125 -21.828125 "/></g></g></g><g fill="#282828" fill-opacity="1"><g transform="translate(913.677197, 886.898808)"><g><path d="M 18.375 -57.125 L 23.875 -57.125 C 17.625 -47.550781 14.5 -37.050781 14.5 -25.625 C 14.5 -14.207031 17.625 -3.710938 23.875 5.859375 L 18.375 5.859375 C 11.5 -2.492188 8.0625 -12.988281 8.0625 -25.625 C 8.0625 -38.269531 11.5 -48.769531 18.375 -57.125 Z M 18.375 -57.125 "/></g></g></g><g fill="#282828" fill-opacity="1"><g transform="translate(940.255605, 886.898808)"><g><path d="M 23.28125 -51.5625 C 29.050781 -51.5625 33.457031 -50.117188 36.5 -47.234375 C 39.550781 -44.359375 41.375 -40.503906 41.96875 -35.671875 L 31.640625 -35.671875 C 31.347656 -38.304688 30.46875 -40.351562 29 -41.8125 C 27.53125 -43.28125 25.503906 -44.015625 22.921875 -44.015625 C 20.816406 -44.015625 19.101562 -43.5 17.78125 -42.46875 C 16.46875 -41.445312 15.8125 -39.960938 15.8125 -38.015625 C 15.8125 -35.859375 16.601562 -34.171875 18.1875 -32.953125 C 19.78125 -31.734375 22.578125 -30.660156 26.578125 -29.734375 C 32.097656 -28.460938 36.164062 -26.53125 38.78125 -23.9375 C 41.394531 -21.351562 42.703125 -18.015625 42.703125 -13.921875 C 42.703125 -9.328125 40.894531 -5.6875 37.28125 -3 C 33.664062 -0.3125 29.242188 1.03125 24.015625 1.03125 C 17.867188 1.03125 12.960938 -0.320312 9.296875 -3.03125 C 5.640625 -5.75 3.566406 -9.71875 3.078125 -14.9375 L 13.40625 -14.9375 C 13.9375 -12.25 15.15625 -10.171875 17.0625 -8.703125 C 18.96875 -7.242188 21.238281 -6.515625 23.875 -6.515625 C 26.21875 -6.515625 28.179688 -7.097656 29.765625 -8.265625 C 31.359375 -9.441406 32.15625 -10.984375 32.15625 -12.890625 C 32.15625 -15.035156 31.382812 -16.765625 29.84375 -18.078125 C 28.300781 -19.398438 25.703125 -20.503906 22.046875 -21.390625 C 16.378906 -22.753906 12.15625 -24.570312 9.375 -26.84375 C 6.59375 -29.113281 5.203125 -32.421875 5.203125 -36.765625 C 5.203125 -41.253906 6.957031 -44.84375 10.46875 -47.53125 C 13.988281 -50.21875 18.257812 -51.5625 23.28125 -51.5625 Z M 23.28125 -51.5625 "/></g></g></g><g fill="#282828" fill-opacity="1"><g transform="translate(984.772615, 886.898808)"><g><path d="M 28.125 -26.359375 L 49.4375 0 L 36.390625 0 L 20.796875 -20.4375 L 16.625 -15.890625 L 16.625 0 L 6.515625 0 L 6.515625 -50.53125 L 16.625 -50.53125 L 16.625 -26.140625 L 38.453125 -50.53125 L 50.453125 -50.53125 Z M 28.125 -26.359375 "/></g></g></g><g fill="#282828" fill-opacity="1"><g transform="translate(1034.781026, 886.898808)"><g><path d="M 16.625 0 L 6.515625 0 L 6.515625 -50.53125 L 16.625 -50.53125 Z M 16.625 0 "/></g></g></g><g fill="#282828" fill-opacity="1"><g transform="translate(1056.160899, 886.898808)"><g><path d="M 50.890625 0 L 37.0625 0 L 16.265625 -38.375 C 16.503906 -33.78125 16.625 -28.601562 16.625 -22.84375 L 16.625 0 L 6.515625 0 L 6.515625 -50.53125 L 19.921875 -50.53125 L 41.15625 -11.421875 C 40.914062 -15.960938 40.796875 -21.257812 40.796875 -27.3125 L 40.796875 -50.53125 L 50.828125 -50.53125 Z M 50.890625 0 "/></g></g></g><g fill="#282828" fill-opacity="1"><g transform="translate(1111.807138, 886.898808)"><g/></g></g><g fill="#282828" fill-opacity="1"><g transform="translate(1126.01159, 886.898808)"><g><path d="M 42.984375 -8.421875 L 42.984375 0 L 6.515625 0 L 6.515625 -50.53125 L 16.625 -50.53125 L 16.625 -8.421875 Z M 42.984375 -8.421875 "/></g></g></g><g fill="#282828" fill-opacity="1"><g transform="translate(1170.235722, 886.898808)"><g><path d="M 33.90625 -15.234375 L 16.921875 -15.234375 L 11.859375 0 L 1.09375 0 L 19.328125 -50.53125 L 32 -50.53125 L 49.875 0 L 38.890625 0 Z M 25.484375 -41.890625 L 19.484375 -23.21875 L 31.34375 -23.21875 Z M 25.484375 -41.890625 "/></g></g></g><g fill="#282828" fill-opacity="1"><g transform="translate(1219.731598, 886.898808)"><g><path d="M 36.03125 -27.25 C 42.519531 -25.582031 45.765625 -21.53125 45.765625 -15.09375 C 45.765625 -10.738281 44.410156 -7.316406 41.703125 -4.828125 C 38.992188 -2.335938 35.738281 -0.828125 31.9375 -0.296875 C 30.21875 -0.0976562 27.875 0 24.90625 0 L 6.515625 0 L 6.515625 -50.53125 L 24.609375 -50.53125 C 27.296875 -50.53125 29.46875 -50.429688 31.125 -50.234375 C 35.175781 -49.742188 38.3125 -48.375 40.53125 -46.125 C 42.757812 -43.882812 43.875 -41.054688 43.875 -37.640625 C 43.875 -32.515625 41.257812 -29.050781 36.03125 -27.25 Z M 16.625 -42.625 L 16.625 -29.8125 L 24.234375 -29.8125 C 25.460938 -29.8125 26.660156 -29.882812 27.828125 -30.03125 C 31.492188 -30.613281 33.328125 -32.710938 33.328125 -36.328125 C 33.328125 -39.890625 31.421875 -41.914062 27.609375 -42.40625 C 26.441406 -42.550781 25.222656 -42.625 23.953125 -42.625 Z M 28.78125 -8.0625 C 30.632812 -8.207031 32.160156 -8.890625 33.359375 -10.109375 C 34.554688 -11.328125 35.15625 -12.960938 35.15625 -15.015625 C 35.15625 -19.265625 32.984375 -21.609375 28.640625 -22.046875 C 27.410156 -22.191406 26.210938 -22.265625 25.046875 -22.265625 L 16.625 -22.265625 L 16.625 -7.984375 L 25.40625 -7.984375 C 27.019531 -7.984375 28.144531 -8.007812 28.78125 -8.0625 Z M 28.78125 -8.0625 "/></g></g></g><g fill="#282828" fill-opacity="1"><g transform="translate(1267.83633, 886.898808)"><g><path d="M 2.421875 -57.125 L 7.90625 -57.125 C 14.789062 -48.769531 18.234375 -38.269531 18.234375 -25.625 C 18.234375 -12.988281 14.789062 -2.492188 7.90625 5.859375 L 2.421875 5.859375 C 8.671875 -3.710938 11.796875 -14.207031 11.796875 -25.625 C 11.796875 -37.050781 8.671875 -47.550781 2.421875 -57.125 Z M 2.421875 -57.125 "/></g></g></g></svg>